<?xml version="1.0" standalone="no"?>
<!DOCTYPE svg PUBLIC "-//W3C//DTD SVG 20010904//EN"
 "http://www.w3.org/TR/2001/REC-SVG-20010904/DTD/svg10.dtd">
<svg version="1.0" xmlns="http://www.w3.org/2000/svg"
 width="700.000000pt" height="700.000000pt" viewBox="0 0 700.000000 700.000000"
 preserveAspectRatio="xMidYMid meet">
<metadata>
Created by potrace 1.14, written by Peter Selinger 2001-2017
</metadata>
<g transform="translate(0.000000,700.000000) scale(0.100000,-0.100000)"
fill="#000000" stroke="none">
<path d="M905 6993 c-425 -54 -771 -361 -877 -779 l-23 -89 0 -2625 0 -2625
22 -85 c99 -387 383 -668 778 -767 66 -17 217 -18 2695 -18 l2625 0 85 22
c382 98 665 381 763 763 l22 85 0 2625 0 2625 -22 85 c-97 380 -375 660 -758
763 l-80 22 -2600 1 c-1430 1 -2613 -1 -2630 -3z m2229 -1185 c14 -19 16 -68
16 -333 0 -341 -2 -355 -58 -355 -17 0 -130 60 -294 155 l-268 155 -90 0
c-156 0 -266 -63 -327 -189 l-28 -56 0 -1925 0 -1925 25 -50 c31 -64 101 -134
165 -165 l50 -25 745 0 745 0 56 28 c66 32 132 99 162 165 20 43 22 64 22 232
0 168 -2 189 -22 232 -30 66 -96 133 -162 165 l-56 28 -252 3 -251 3 -4 45 -3
45 265 -3 265 -3 65 -31 c120 -58 194 -143 231 -266 19 -60 21 -88 17 -241 -4
-143 -8 -181 -25 -223 -45 -114 -131 -202 -240 -246 l-58 -23 -755 0 -755 0
-55 23 c-113 46 -196 129 -242 242 l-23 55 -3 1905 c-1 1285 1 1921 8 1955 27
129 108 233 227 292 71 35 82 38 197 43 l121 5 260 152 c157 92 271 152 287
153 17 0 33 -8 42 -22z m1386 -304 c104 -24 203 -79 288 -159 89 -84 141 -166
179 -280 23 -70 26 -97 27 -225 1 -139 0 -147 -27 -205 -52 -111 -143 -182
-262 -204 -38 -7 -286 -11 -722 -11 -650 0 -663 0 -683 20 -23 23 -24 30 -7
53 11 15 72 17 712 19 686 3 701 3 745 24 57 26 108 77 132 130 37 85 33 263
-9 394 -44 139 -175 274 -325 335 l-73 30 -420 3 c-231 1 -430 4 -442 7 -31 7
-47 39 -33 65 10 20 21 20 433 20 343 0 434 -3 487 -16z m-1576 -1016 c22 -36
-10 -60 -96 -73 -50 -8 -116 -60 -145 -114 l-23 -44 0 -1131 c0 -1020 -2
-1134 -16 -1154 -20 -29 -54 -25 -71 8 -16 32 -19 2159 -3 2259 6 35 20 81 31
103 30 58 102 124 162 147 64 25 145 24 161 -1z m2067 -220 c17 -31 6 -396
-14 -466 -54 -189 -178 -340 -344 -419 -145 -70 -107 -66 -866 -70 -614 -4
-692 -2 -713 12 -26 17 -31 46 -11 63 9 7 235 12 707 14 637 4 700 5 750 22
188 61 328 202 385 386 13 41 19 106 22 255 3 111 10 206 15 213 17 20 56 14
69 -10z"/>
</g>
</svg>
